# xmcd
#
# Track frame offsets:
#	150
#	16078
#	34211
#	49914
#	65306
#	81866
#	98033
#	117001
#	132868
#	150520
#	167700
#	184400
#	200345
#
# Disc length: 2929 seconds
#
# Revision: 1
# Processed by: cddbd v1.5.2PL0 Copyright (c) Steve Scherf et al.
# Submitted via: audiograbber 1.83.01
#
DISCID=a20b6f0d
DTITLE=Robin Barrett - Blue Movie
DYEAR=2002
DGENRE=Bluesrock
TTITLE0=Naughty Little Girl
TTITLE1=Dark Dark Night
TTITLE2=This House of Blues
TTITLE3=She´s hot!
TTITLE4=Shake it
TTITLE5=Stranger comin´
TTITLE6=To show your love
TTITLE7=Crazy in the head
TTITLE8=Her Groove
TTITLE9=The Cha Cha of Love
TTITLE10=The Dragon Dance
TTITLE11=They want it
TTITLE12=Train´s on time
EXTD=
EXTT0=
EXTT1=
EXTT2=
EXTT3=
EXTT4=
EXTT5=
EXTT6=
EXTT7=
EXTT8=
EXTT9=
EXTT10=
EXTT11=
EXTT12=
PLAYORDER=
